<?xml version="1.0" encoding="UTF-8" standalone="no"?>
<!-- Created with Inkscape (http://www.inkscape.org/) -->

<svg
   xmlns:dc="http://purl.org/dc/elements/1.1/"
   xmlns:cc="http://creativecommons.org/ns#"
   xmlns:rdf="http://www.w3.org/1999/02/22-rdf-syntax-ns#"
   xmlns:svg="http://www.w3.org/2000/svg"
   xmlns="http://www.w3.org/2000/svg"
   xmlns:xlink="http://www.w3.org/1999/xlink"
   xmlns:sodipodi="http://sodipodi.sourceforge.net/DTD/sodipodi-0.dtd"
   xmlns:inkscape="http://www.inkscape.org/namespaces/inkscape"
   width="96"
   height="96"
   id="svg6517"
   version="1.1"
   inkscape:version="0.91+devel r"
   sodipodi:docname="neutron-api-odl.svg"
   viewBox="0 0 96 96">
  <sodipodi:namedview
     id="base"
     pagecolor="#ffffff"
     bordercolor="#666666"
     borderopacity="1.0"
     inkscape:pageopacity="0.0"
     inkscape:pageshadow="2"
     inkscape:zoom="5.0931702"
     inkscape:cx="-10.693008"
     inkscape:cy="48.992336"
     inkscape:document-units="px"
     inkscape:current-layer="layer1"
     showgrid="false"
     fit-margin-top="0"
     fit-margin-left="0"
     fit-margin-right="0"
     fit-margin-bottom="0"
     inkscape:window-width="1920"
     inkscape:window-height="1029"
     inkscape:window-x="0"
     inkscape:window-y="24"
     inkscape:window-maximized="1"
     showborder="true"
     showguides="false"
     inkscape:guide-bbox="true"
     inkscape:showpageshadow="false"
     inkscape:snap-global="true"
     inkscape:snap-bbox="false"
     inkscape:bbox-paths="true"
     inkscape:bbox-nodes="true"
     inkscape:snap-bbox-edge-midpoints="true"
     inkscape:snap-bbox-midpoints="true"
     inkscape:object-paths="true"
     inkscape:snap-intersection-paths="true"
     inkscape:object-nodes="true"
     inkscape:snap-smooth-nodes="true"
     inkscape:snap-midpoints="true"
     inkscape:snap-object-midpoints="true"
     inkscape:snap-center="true"
     inkscape:snap-grids="false"
     inkscape:snap-nodes="true"
     inkscape:snap-others="false">
    <inkscape:grid
       id="grid821"
       type="xygrid" />
    <sodipodi:guide
       id="guide823"
       position="18.34962,45.78585"
       orientation="1,0"
       inkscape:locked="false" />
    <sodipodi:guide
       id="guide827"
       position="78.02001,46.32673"
       orientation="1,0"
       inkscape:locked="false" />
    <sodipodi:guide
       inkscape:label=""
       id="guide4184"
       position="65.586619,19.307"
       orientation="-0.087155743,0.9961947"
       inkscape:locked="false" />
    <sodipodi:guide
       inkscape:label=""
       id="guide4188"
       position="62.756032,71.583147"
       orientation="-0.087155743,0.9961947"
       inkscape:locked="false" />
    <sodipodi:guide
       inkscape:label=""
       id="guide4190"
       position="47.812194,78.049658"
       orientation="-0.087155743,0.9961947"
       inkscape:locked="false" />
    <sodipodi:guide
       id="guide4194"
       position="25.60516,42.21665"
       orientation="1,0"
       inkscape:locked="false" />
    <sodipodi:guide
       inkscape:label=""
       id="guide4202"
       position="25.60516,42.070975"
       orientation="-0.087155743,0.9961947"
       inkscape:locked="false" />
    <sodipodi:guide
       inkscape:label=""
       id="guide4204"
       position="18.353516,50.837891"
       orientation="-0.70710678,-0.70710678"
       inkscape:locked="false" />
    <sodipodi:guide
       inkscape:label=""
       id="guide4242"
       position="53.449219,34.658203"
       orientation="-0.70710678,-0.70710678"
       inkscape:locked="false" />
    <sodipodi:guide
       inkscape:label=""
       id="guide4252"
       position="73.5625,75.210937"
       orientation="-0.70710678,-0.70710678"
       inkscape:locked="false" />
    <sodipodi:guide
       inkscape:label=""
       inkscape:color="rgb(140,140,240)"
       id="guide4254"
       position="50.173828,42.578125"
       orientation="-0.70710678,-0.70710678"
       inkscape:locked="false" />
    <sodipodi:guide
       inkscape:label=""
       id="guide4288"
       position="21.871042,21.577512"
       orientation="-0.70710678,-0.70710678"
       inkscape:locked="false" />
    <sodipodi:guide
       orientation="-0.70710678,-0.70710678"
       position="78.02001,56.512515"
       id="guide4453"
       inkscape:label=""
       inkscape:locked="false" />
    <sodipodi:guide
       orientation="-0.70710678,-0.70710678"
       position="78.02001,33.527044"
       id="guide4455"
       inkscape:label=""
       inkscape:locked="false" />
    <sodipodi:guide
       orientation="-0.70710678,-0.70710678"
       position="53.453125,54.357422"
       id="guide4457"
       inkscape:label=""
       inkscape:locked="false" />
  </sodipodi:namedview>
  <defs
     id="defs6519">
    <linearGradient
       id="linearGradient4366"
       inkscape:collect="always">
      <stop
         id="stop4362"
         offset="0"
         style="stop-color:#f04e23;stop-opacity:1" />
      <stop
         id="stop4364"
         offset="1"
         style="stop-color:#f26b21;stop-opacity:1" />
    </linearGradient>
    <filter
       id="filter1121"
       inkscape:label="Inner Shadow"
       style="color-interpolation-filters:sRGB">
      <feFlood
         id="feFlood1123"
         result="flood"
         flood-color="rgb(0,0,0)"
         flood-opacity="0.59999999999999998" />
      <feComposite
         id="feComposite1125"
         result="composite1"
         operator="out"
         in2="SourceGraphic"
         in="flood" />
      <feGaussianBlur
         id="feGaussianBlur1127"
         result="blur"
         stdDeviation="1"
         in="composite1" />
      <feOffset
         id="feOffset1129"
         result="offset"
         dy="2"
         dx="0" />
      <feComposite
         id="feComposite1131"
         result="composite2"
         operator="atop"
         in2="SourceGraphic"
         in="offset" />
    </filter>
    <filter
       id="filter950"
       inkscape:label="Drop Shadow"
       style="color-interpolation-filters:sRGB">
      <feFlood
         id="feFlood952"
         result="flood"
         flood-color="rgb(0,0,0)"
         flood-opacity="0.25" />
      <feComposite
         id="feComposite954"
         result="composite1"
         operator="in"
         in2="SourceGraphic"
         in="flood" />
      <feGaussianBlur
         id="feGaussianBlur956"
         result="blur"
         stdDeviation="1"
         in="composite1" />
      <feOffset
         id="feOffset958"
         result="offset"
         dy="1"
         dx="0" />
      <feComposite
         id="feComposite960"
         result="composite2"
         operator="over"
         in2="offset"
         in="SourceGraphic" />
    </filter>
    <filter
       inkscape:label="Badge Shadow"
       id="filter891"
       inkscape:collect="always">
      <feGaussianBlur
         id="feGaussianBlur893"
         stdDeviation="0.71999962"
         inkscape:collect="always" />
    </filter>
    <filter
       inkscape:collect="always"
       id="filter3831">
      <feGaussianBlur
         inkscape:collect="always"
         stdDeviation="0.86309522"
         id="feGaussianBlur3833" />
    </filter>
    <filter
       inkscape:collect="always"
       id="filter3868"
       x="-0.17186207"
       width="1.3437241"
       y="-0.1643077"
       height="1.3286154">
      <feGaussianBlur
         inkscape:collect="always"
         stdDeviation="0.62628186"
         id="feGaussianBlur3870" />
    </filter>
    <linearGradient
       id="Background">
      <stop
         style="stop-color:#22779e;stop-opacity:1"
         offset="0"
         id="stop4178" />
      <stop
         style="stop-color:#2991c0;stop-opacity:1"
         offset="1"
         id="stop4180" />
    </linearGradient>
    <clipPath
       id="clipPath873"
       clipPathUnits="userSpaceOnUse">
      <g
         style="display:inline;fill:#ff00ff;fill-opacity:1;stroke:none"
         inkscape:label="Layer 1"
         id="g875"
         transform="matrix(0,-0.66666667,0.66604479,0,-258.25992,677.00001)">
        <path
           sodipodi:nodetypes="sssssssss"
           inkscape:connector-curvature="0"
           id="path877"
           d="M 46.702703,898.22775 H 97.297297 C 138.16216,898.22775 144,904.06497 144,944.92583 v 50.73846 c 0,40.86071 -5.83784,46.69791 -46.702703,46.69791 H 46.702703 C 5.8378378,1042.3622 0,1036.525 0,995.66429 v -50.73846 c 0,-40.86086 5.8378378,-46.69808 46.702703,-46.69808 z"
           style="display:inline;fill:#ff00ff;fill-opacity:1;stroke:none" />
      </g>
    </clipPath>
    <style
       type="text/css"
       id="style867">
    .fil0 {fill:#1F1A17}
   </style>
    <clipPath
       id="clipPath16">
      <path
         d="M -9,-9 H 605 V 222 H -9 Z"
         id="path18"
         inkscape:connector-curvature="0" />
    </clipPath>
    <clipPath
       id="clipPath116">
      <path
         d="m 91.7368,146.3253 -9.7039,-1.577 -8.8548,-3.8814 -7.5206,-4.7308 -7.1566,-8.7335 -4.0431,-4.282 -3.9093,-1.4409 -1.034,2.5271 1.8079,2.6096 0.4062,3.6802 1.211,-0.0488 1.3232,-1.2069 -0.3569,3.7488 -1.4667,0.9839 0.0445,1.4286 -3.4744,-1.9655 -3.1462,-3.712 -0.6559,-3.3176 1.3453,-2.6567 1.2549,-4.5133 2.5521,-1.2084 2.6847,0.1318 2.5455,1.4791 -1.698,-8.6122 1.698,-9.5825 -1.8692,-4.4246 -6.1223,-6.5965 1.0885,-3.941 2.9002,-4.5669 5.4688,-3.8486 2.9007,-0.3969 3.225,-0.1094 -2.012,-8.2601 7.3993,-3.0326 9.2188,-1.2129 3.1535,2.0619 0.2427,5.5797 3.5178,5.8224 0.2426,4.6094 8.4909,-0.6066 7.8843,0.7279 -7.8843,-4.7307 1.3343,-5.701 4.9731,-7.763 4.8521,-2.0622 3.8814,1.5769 1.577,3.1538 8.1269,6.1861 1.5769,-1.3343 12.7363,-0.485 2.5473,2.0619 0.2426,3.6391 -0.849,1.5767 -0.6066,9.8251 -4.2454,8.4909 0.7276,3.7605 2.5475,-1.3343 7.1566,-6.6716 3.5175,-0.2424 3.8815,1.5769 3.8818,2.9109 1.9406,6.3077 11.4021,-0.7277 6.914,2.6686 5.5797,5.2157 4.0028,7.5206 0.9706,8.8546 -0.8493,10.3105 -2.1832,9.2185 -2.1836,2.9112 -3.0322,0.9706 -5.3373,-5.8224 -4.8518,-1.6982 -4.2455,7.0353 -4.2454,3.8815 -2.3049,1.4556 -9.2185,7.6419 -7.3993,4.0028 -7.3993,0.6066 -8.6119,-1.4556 -7.5206,-2.7899 -5.2158,-4.2454 -4.1241,-4.9734 -4.2454,-1.2129"
         id="path118"
         inkscape:connector-curvature="0" />
    </clipPath>
    <clipPath
       id="clipPath128">
      <path
         d="m 91.7368,146.3253 -9.7039,-1.577 -8.8548,-3.8814 -7.5206,-4.7308 -7.1566,-8.7335 -4.0431,-4.282 -3.9093,-1.4409 -1.034,2.5271 1.8079,2.6096 0.4062,3.6802 1.211,-0.0488 1.3232,-1.2069 -0.3569,3.7488 -1.4667,0.9839 0.0445,1.4286 -3.4744,-1.9655 -3.1462,-3.712 -0.6559,-3.3176 1.3453,-2.6567 1.2549,-4.5133 2.5521,-1.2084 2.6847,0.1318 2.5455,1.4791 -1.698,-8.6122 1.698,-9.5825 -1.8692,-4.4246 -6.1223,-6.5965 1.0885,-3.941 2.9002,-4.5669 5.4688,-3.8486 2.9007,-0.3969 3.225,-0.1094 -2.012,-8.2601 7.3993,-3.0326 9.2188,-1.2129 3.1535,2.0619 0.2427,5.5797 3.5178,5.8224 0.2426,4.6094 8.4909,-0.6066 7.8843,0.7279 -7.8843,-4.7307 1.3343,-5.701 4.9731,-7.763 4.8521,-2.0622 3.8814,1.5769 1.577,3.1538 8.1269,6.1861 1.5769,-1.3343 12.7363,-0.485 2.5473,2.0619 0.2426,3.6391 -0.849,1.5767 -0.6066,9.8251 -4.2454,8.4909 0.7276,3.7605 2.5475,-1.3343 7.1566,-6.6716 3.5175,-0.2424 3.8815,1.5769 3.8818,2.9109 1.9406,6.3077 11.4021,-0.7277 6.914,2.6686 5.5797,5.2157 4.0028,7.5206 0.9706,8.8546 -0.8493,10.3105 -2.1832,9.2185 -2.1836,2.9112 -3.0322,0.9706 -5.3373,-5.8224 -4.8518,-1.6982 -4.2455,7.0353 -4.2454,3.8815 -2.3049,1.4556 -9.2185,7.6419 -7.3993,4.0028 -7.3993,0.6066 -8.6119,-1.4556 -7.5206,-2.7899 -5.2158,-4.2454 -4.1241,-4.9734 -4.2454,-1.2129"
         id="path130"
         inkscape:connector-curvature="0" />
    </clipPath>
    <linearGradient
       inkscape:collect="always"
       id="linearGradient3850">
      <stop
         style="stop-color:#000000;stop-opacity:1;"
         offset="0"
         id="stop3852" />
      <stop
         style="stop-color:#000000;stop-opacity:0;"
         offset="1"
         id="stop3854" />
    </linearGradient>
    <clipPath
       id="clipPath3095"
       clipPathUnits="userSpaceOnUse">
      <path
         inkscape:connector-curvature="0"
         id="path3097"
         d="M 976.648,389.551 H 134.246 V 1229.55 H 976.648 V 389.551" />
    </clipPath>
    <clipPath
       id="clipPath3195"
       clipPathUnits="userSpaceOnUse">
      <path
         inkscape:connector-curvature="0"
         id="path3197"
         d="m 611.836,756.738 -106.34,105.207 c -8.473,8.289 -13.617,20.102 -13.598,33.379 L 598.301,790.207 c -0.031,-13.418 5.094,-25.031 13.535,-33.469" />
    </clipPath>
    <clipPath
       id="clipPath3235"
       clipPathUnits="userSpaceOnUse">
      <path
         inkscape:connector-curvature="0"
         id="path3237"
         d="m 1095.64,1501.81 c 35.46,-35.07 70.89,-70.11 106.35,-105.17 4.4,-4.38 7.11,-10.53 7.11,-17.55 l -106.37,105.21 c 0,7 -2.71,13.11 -7.09,17.51" />
    </clipPath>
    <linearGradient
       inkscape:collect="always"
       id="linearGradient4389">
      <stop
         style="stop-color:#f04e23;stop-opacity:1"
         offset="0"
         id="stop4391" />
      <stop
         style="stop-color:#f26b21;stop-opacity:1"
         offset="1"
         id="stop4393" />
    </linearGradient>
    <clipPath
       clipPathUnits="userSpaceOnUse"
       id="clipPath4591">
      <path
         id="path4593"
         style="fill:#ff00ff;fill-opacity:1;fill-rule:nonzero;stroke:none"
         d="m 1106.6009,730.43734 -0.036,21.648 c -0.01,3.50825 -2.8675,6.61375 -6.4037,6.92525 l -83.6503,7.33162 c -3.5205,0.30763 -6.3812,-2.29987 -6.3671,-5.8145 l 0.036,-21.6475 20.1171,-1.76662 -0.011,4.63775 c 0,1.83937 1.4844,3.19925 3.3262,3.0395 l 49.5274,-4.33975 c 1.8425,-0.166 3.3425,-1.78125 3.3538,-3.626 l 0.01,-4.63025 20.1,-1.7575"
         inkscape:connector-curvature="0" />
    </clipPath>
    <radialGradient
       inkscape:collect="always"
       xlink:href="#linearGradient3850"
       id="radialGradient3856"
       cx="-26.508606"
       cy="93.399292"
       fx="-26.508606"
       fy="93.399292"
       r="20.40658"
       gradientTransform="matrix(-1.4333926,-2.2742838,1.1731823,-0.73941125,-174.08025,98.374394)"
       gradientUnits="userSpaceOnUse" />
    <filter
       inkscape:collect="always"
       id="filter3885">
      <feGaussianBlur
         inkscape:collect="always"
         stdDeviation="5.7442192"
         id="feGaussianBlur3887" />
    </filter>
    <linearGradient
       inkscape:collect="always"
       xlink:href="#linearGradient3850"
       id="linearGradient3895"
       x1="348.20132"
       y1="593.11615"
       x2="-51.879555"
       y2="993.19702"
       gradientUnits="userSpaceOnUse"
       gradientTransform="translate(-318.48033,212.32022)" />
    <radialGradient
       inkscape:collect="always"
       xlink:href="#linearGradient3850"
       id="radialGradient3902"
       gradientUnits="userSpaceOnUse"
       gradientTransform="matrix(-1.4333926,-2.2742838,1.1731823,-0.73941125,-174.08025,98.374394)"
       cx="-26.508606"
       cy="93.399292"
       fx="-26.508606"
       fy="93.399292"
       r="20.40658" />
    <linearGradient
       inkscape:collect="always"
       xlink:href="#linearGradient3850"
       id="linearGradient3904"
       gradientUnits="userSpaceOnUse"
       gradientTransform="translate(-318.48033,212.32022)"
       x1="348.20132"
       y1="593.11615"
       x2="-51.879555"
       y2="993.19702" />
    <linearGradient
       gradientUnits="userSpaceOnUse"
       y2="23.383789"
       x2="25.217773"
       y1="27.095703"
       x1="21.505859"
       id="linearGradient4318"
       xlink:href="#linearGradient4366"
       inkscape:collect="always" />
    <linearGradient
       gradientUnits="userSpaceOnUse"
       y2="20.884073"
       x2="71.960243"
       y1="20.041777"
       x1="72.802544"
       id="linearGradient4326"
       xlink:href="#linearGradient4389"
       inkscape:collect="always" />
    <linearGradient
       gradientUnits="userSpaceOnUse"
       y2="24.881023"
       x2="57.450542"
       y1="77.404816"
       x1="57.450542"
       id="linearGradient4319"
       xlink:href="#linearGradient4552"
       inkscape:collect="always" />
    <linearGradient
       id="linearGradient4552"
       inkscape:collect="always">
      <stop
         id="stop4554"
         offset="0"
         style="stop-color:#f8a718;stop-opacity:1" />
      <stop
         id="stop4556"
         offset="1"
         style="stop-color:#fab814;stop-opacity:1" />
    </linearGradient>
  </defs>
  <metadata
     id="metadata6522">
    <rdf:RDF>
      <cc:Work
         rdf:about="">
        <dc:format>image/svg+xml</dc:format>
        <dc:type
           rdf:resource="http://purl.org/dc/dcmitype/StillImage" />
        <dc:title></dc:title>
      </cc:Work>
    </rdf:RDF>
  </metadata>
  <g
     style="display:inline"
     transform="translate(268,-635.29076)"
     id="layer1"
     inkscape:groupmode="layer"
     inkscape:label="BACKGROUND">
    <path
       sodipodi:nodetypes="sssssssss"
       inkscape:connector-curvature="0"
       id="path6455"
       d="M -268,700.15563 V 666.4259 c 0,-27.24324 3.88785,-31.13513 31.10302,-31.13513 h 33.79408 c 27.21507,0 31.1029,3.89189 31.1029,31.13513 v 33.72973 c 0,27.24325 -3.88783,31.13514 -31.1029,31.13514 h -33.79408 c -27.21517,0 -31.10302,-3.89189 -31.10302,-31.13514 z"
       style="display:inline;fill:#e6e6e6;fill-opacity:1;stroke:none;filter:url(#filter1121)" />
    <g
       id="g4336">
      <g
         transform="matrix(0.06790711,0,0,-0.06790711,-239.0411,765.68623)"
         id="g3897"
         xml:space="default">
        <path
           inkscape:connector-curvature="0"
           style="color:#000000;display:inline;overflow:visible;visibility:visible;opacity:0.7;fill:url(#radialGradient3902);fill-opacity:1;stroke:none;stroke-width:2;marker:none;filter:url(#filter3831);enable-background:accumulate"
           d="m -48.09375,67.8125 c -0.873996,-0.0028 -2.089735,0.01993 -3.40625,0.09375 -2.633031,0.147647 -5.700107,0.471759 -7.78125,1.53125 a 1.0001,1.0001 0 0 0 -0.25,1.59375 L -38.8125,92.375 a 1.0001,1.0001 0 0 0 0.84375,0.3125 L -24,90.5625 a 1.0001,1.0001 0 0 0 0.53125,-1.71875 L -46.0625,68.125 a 1.0001,1.0001 0 0 0 -0.625,-0.28125 c 0,0 -0.532254,-0.02842 -1.40625,-0.03125 z"
           transform="matrix(10.616011,0,0,-10.616011,357.98166,1725.8152)"
           id="path3821"
           xml:space="default" />
        <path
           style="color:#000000;display:inline;overflow:visible;visibility:visible;opacity:0.6;fill:none;stroke:#000000;stroke-width:2.77429962;stroke-linecap:round;marker:none;filter:url(#filter3868);enable-background:accumulate"
           d="m -15.782705,81.725197 8.7458304,9.147937"
           id="path3858"
           inkscape:connector-curvature="0"
           transform="matrix(10.616011,0,0,-10.616011,39.50133,1725.8152)"
           xml:space="default" />
        <path
           style="color:#000000;font-style:normal;font-variant:normal;font-weight:normal;font-stretch:normal;line-height:normal;font-family:Sans;-inkscape-font-specification:Sans;text-indent:0;text-align:start;text-decoration:none;text-decoration-line:none;letter-spacing:normal;word-spacing:normal;text-transform:none;writing-mode:lr-tb;direction:ltr;baseline-shift:baseline;text-anchor:start;display:inline;overflow:visible;visibility:visible;opacity:0.3;fill:url(#linearGradient3904);fill-opacity:1;stroke:none;stroke-width:2;marker:none;filter:url(#filter3885);enable-background:accumulate"
           d="m -95.18931,981.03569 a 10.617073,10.617073 0 0 1 -0.995251,-0.3318 l -42.795789,-5.308 a 10.617073,10.617073 0 0 1 -6.30326,-17.9145 L -4.2897203,812.5065 a 10.617073,10.617073 0 0 1 8.95726,-3.3175 l 49.0990503,7.63026 a 10.617073,10.617073 0 0 1 5.97151,17.91452 L -87.55905,978.04989 a 10.617073,10.617073 0 0 1 -7.63026,2.9858 z"
           id="path3874"
           inkscape:connector-curvature="0"
           xml:space="default" />
      </g>
      <path
         style="color:#000000;display:inline;overflow:visible;visibility:visible;opacity:1;fill:#f04e23;fill-opacity:1;fill-rule:nonzero;stroke:none;stroke-width:0.1;marker:none;enable-background:accumulate"
         d="m 20.697266,20.515625 c -1.360395,0.586415 -2.348391,1.940628 -2.351563,3.455078 l 0.0078,45.630859 c -0.0037,0.875463 0.33194,1.637757 0.86914,2.201172 l -0.0098,0.0098 0.144531,0.142578 c 0.0031,0.0028 0.0067,0.005 0.0098,0.0078 l 7.292968,7.164062 6.826172,-7.384765 -11.669922,1.021484 c -0.0235,0.002 -0.04506,-0.002 -0.06836,0 L 45.263672,70.707031 67.28125,68.777344 c 0.463136,-0.0408 0.902799,-0.174059 1.306641,-0.373047 l -11.835938,-11.835938 -10.558594,0.925782 -1.638671,0.144531 -1.636719,0.142578 0.002,-11.490234 h -0.002 l -24.564453,2.152343 v -3.28125 l 24.566406,-2.154297 v -0.269531 z m 25.498046,25.496094 -0.002,8.199219 7.541016,-0.660157 z"
         transform="translate(-268,635.29076)"
         id="path4308"
         inkscape:connector-curvature="0" />
      <path
         style="color:#000000;display:inline;overflow:visible;visibility:visible;opacity:1;fill:#f26b21;fill-opacity:1;fill-rule:nonzero;stroke:none;stroke-width:0.1;marker:none;enable-background:accumulate"
         d="m 67.320312,16.253906 -45.498046,3.958985 c -0.39583,0.03513 -0.770092,0.149746 -1.125,0.302734 l 22.222656,22.222656 0.002,-11.222656 1.638672,-0.144531 1.638672,-0.142578 24.580078,-2.15625 0.0039,-9.667969 c 0,0.0067 0.002,0.01253 0.002,0.01953 l -0.0059,11.958984 6.453125,-6.984374 -7.339844,-7.21875 -0.0078,0.0098 c -0.633003,-0.646717 -1.5421,-1.018147 -2.564454,-0.935547 z m -25.146484,2.189453 -20.5,1.800782 c 0.05157,-0.0068 0.100244,-0.0243 0.152344,-0.0293 z m 28.601563,13.91211 -24.578125,2.15625 -0.002,11.5 7.539063,7.539062 17.03125,-1.492187 z m -0.01172,22.986328 -14.011719,1.226562 11.835938,11.835938 c 1.271292,-0.626416 2.168839,-1.942262 2.171875,-3.388672 z"
         transform="translate(-268,635.29076)"
         id="path4233"
         inkscape:connector-curvature="0" />
      <rect
         xml:space="default"
         y="648.49109"
         x="-258.70667"
         height="69.20665"
         width="69.20665"
         id="rect3585-3"
         style="color:#000000;display:inline;overflow:visible;visibility:visible;opacity:0.8;fill:none;stroke:none;stroke-width:4;marker:none;enable-background:accumulate" />
      <path
         style="color:#000000;font-style:normal;font-variant:normal;font-weight:normal;font-stretch:normal;line-height:normal;font-family:sans-serif;-inkscape-font-specification:sans-serif;text-indent:0;text-align:start;text-decoration:none;text-decoration-line:none;letter-spacing:normal;word-spacing:normal;text-transform:none;writing-mode:lr-tb;direction:ltr;baseline-shift:baseline;text-anchor:start;clip-rule:nonzero;display:inline;overflow:visible;visibility:visible;opacity:1;color-interpolation:sRGB;color-interpolation-filters:sRGB;fill:url(#linearGradient4318);fill-opacity:1;fill-rule:nonzero;stroke:none;stroke-width:5.25;marker:none;color-rendering:auto;image-rendering:auto;shape-rendering:auto;text-rendering:auto;enable-background:accumulate"
         d="m 22.029297,20.195312 -0.207031,0.01758 c -1.902428,0.168824 -3.45149,1.830243 -3.472657,3.726562 l 6.3125,6.3125 0.94336,0.943359 v -0.0918 c 0.004,-1.90955 1.563482,-3.588043 3.476562,-3.757813 l 0.08984,-0.0078 -0.798828,-0.798829 z"
         transform="translate(-268,635.29076)"
         id="path4256"
         inkscape:connector-curvature="0" />
      <path
         style="color:#000000;font-style:normal;font-variant:normal;font-weight:normal;font-stretch:normal;line-height:normal;font-family:sans-serif;-inkscape-font-specification:sans-serif;text-indent:0;text-align:start;text-decoration:none;text-decoration-line:none;letter-spacing:normal;word-spacing:normal;text-transform:none;writing-mode:lr-tb;direction:ltr;baseline-shift:baseline;text-anchor:start;clip-rule:nonzero;display:inline;overflow:visible;visibility:visible;opacity:0.53600003;color-interpolation:sRGB;color-interpolation-filters:sRGB;fill:url(#linearGradient4326);fill-opacity:1;fill-rule:nonzero;stroke:none;stroke-width:2.4000001;stroke-miterlimit:4;stroke-dasharray:none;marker:none;color-rendering:auto;image-rendering:auto;shape-rendering:auto;text-rendering:auto;enable-background:accumulate"
         d="m 67.330078,16.253906 0.701172,0.701172 6.441406,6.441406 0.107422,-0.0098 c 0.951849,-0.07691 1.81051,0.233938 2.435547,0.798828 l -7.123047,-7.005859 -0.0078,0.0098 c -0.630923,-0.644591 -1.536438,-1.014902 -2.554688,-0.935547 z m 9.72461,7.96875 c 0.0609,0.05703 0.10994,0.125626 0.166015,0.1875 l 0.01172,-0.01172 z"
         transform="translate(-268,635.29076)"
         id="path4272"
         inkscape:connector-curvature="0" />
      <path
         style="color:#000000;font-style:normal;font-variant:normal;font-weight:normal;font-stretch:normal;line-height:normal;font-family:sans-serif;-inkscape-font-specification:sans-serif;text-indent:0;text-align:start;text-decoration:none;text-decoration-line:none;letter-spacing:normal;word-spacing:normal;text-transform:none;writing-mode:lr-tb;direction:ltr;baseline-shift:baseline;text-anchor:start;clip-rule:nonzero;display:inline;overflow:visible;visibility:visible;opacity:1;color-interpolation:sRGB;color-interpolation-filters:sRGB;fill:#f04e23;fill-opacity:1;fill-rule:nonzero;stroke:none;stroke-width:1.70000005;stroke-miterlimit:4;stroke-dasharray:none;marker:none;color-rendering:auto;image-rendering:auto;shape-rendering:auto;text-rendering:auto;enable-background:accumulate"
         d="m 18.363281,69.712891 c 0.02468,0.827451 0.34572,1.551122 0.859375,2.089843 l -0.0098,0.0098 0.144531,0.142578 c 0.0031,0.0028 0.0067,0.005 0.0098,0.0078 l 7.232421,7.105468 c -0.554778,-0.518234 -0.901368,-1.247207 -0.960937,-2.080078 l -6.6875,-6.689453 z m 8.273438,9.390625 0.02344,0.02344 0.0039,-0.0039 c -0.0084,-0.0074 -0.01902,-0.01201 -0.02734,-0.01953 z"
         transform="translate(-268,635.29076)"
         id="path4290"
         inkscape:connector-curvature="0" />
      <path
         style="color:#000000;display:inline;overflow:visible;visibility:visible;fill:#f58020;fill-opacity:1;fill-rule:nonzero;stroke:none;stroke-width:2;marker:none;enable-background:accumulate"
         d="m -214.55078,696.63256 -10.56381,-10.56381 7.29232,-12.13151 3.2754,2.9961 3.88512,11.59245 -3.88912,8.10677 z"
         id="path4464"
         inkscape:connector-curvature="0"
         xml:space="default"
         sodipodi:nodetypes="ccccccc" />
      <path
         style="color:#000000;display:inline;overflow:visible;visibility:visible;fill:#f26b21;fill-opacity:1;fill-rule:nonzero;stroke:none;stroke-width:2;marker:none;enable-background:accumulate"
         d="m -217.82617,688.71263 -3.01835,-3.01834 -21.5461,1.88944 -4.23895,-4.11395 -3.01691,0.26434 7.25586,7.13086 17.30859,2.20703 z"
         id="path4462"
         inkscape:connector-curvature="0"
         sodipodi:nodetypes="cccccccc" />
      <path
         style="display:inline;fill:url(#linearGradient4319);fill-opacity:1;fill-rule:nonzero;stroke:none"
         d="m 74.580078,23.386719 -25.15039,2.1875 -1.140626,0.09961 L 28.929688,27.375 c -1.841344,0.244196 -3.320328,1.870994 -3.324219,3.728516 l 0.0039,21.189453 24.566406,-2.154297 0.002,-11.492188 1.638672,-0.144531 1.638672,-0.142578 24.580078,-2.15625 0.0039,-9.667969 c -0.0079,-1.903969 -1.549409,-3.302721 -3.458984,-3.148437 z m 3.453125,16.099609 -24.580078,2.15625 -0.0039,19.699219 24.576172,-2.152344 z m -27.859375,13.935547 -24.564453,2.152344 0.0039,21.160156 c -0.0079,1.889288 1.51552,3.292697 3.400391,3.160156 l 40.259766,-3.523437 5.142578,-0.449219 0.125,-0.01172 c 1.92109,-0.16923 3.474515,-1.855838 3.478515,-3.761718 l 0.0039,-9.675782 -24.574219,2.152344 -1.638672,0.144531 -1.636719,0.142578 0.002,-11.490234 z"
         transform="translate(-268,635.29076)"
         id="path4633-5"
         inkscape:connector-curvature="0" />
      <path
         style="color:#000000;display:inline;overflow:visible;visibility:visible;opacity:1;fill:#f04e23;fill-opacity:1;fill-rule:nonzero;stroke:none;stroke-width:2;marker:none;enable-background:accumulate"
         d="m -249.65067,680.44868 7.25583,7.25583 0.002,-10.71551 -7.2578,-7.01958 z"
         id="path4460"
         inkscape:connector-curvature="0"
         xml:space="default" />
      <path
         style="color:#000000;display:inline;overflow:visible;visibility:visible;fill:#f26b21;fill-opacity:1;fill-rule:nonzero;stroke:none;stroke-width:2;marker:none;enable-background:accumulate"
         d="m -214.55087,696.63247 21.55222,-1.88742 3.01866,3.01867 -27.84618,2.43915 0.001,-6.84452 z"
         id="path4466"
         inkscape:connector-curvature="0"
         xml:space="default"
         sodipodi:nodetypes="cccccc" />
      <path
         xml:space="default"
         inkscape:connector-curvature="0"
         id="path4468"
         d="m -217.82227,673.93724 24.82362,-2.17766 3.01866,3.01867 -24.56688,2.15509 z"
         style="color:#000000;display:inline;overflow:visible;visibility:visible;fill:#f26b21;fill-opacity:1;fill-rule:nonzero;stroke:none;stroke-width:2;marker:none;enable-background:accumulate"
         sodipodi:nodetypes="ccccc" />
      <path
         style="display:inline;opacity:0.3;fill:#ffffff;fill-opacity:1;fill-rule:nonzero;stroke:none"
         d="m 74.580078,23.386719 -25.15039,2.1875 -1.140626,0.09961 L 28.929688,27.375 c -1.841344,0.244196 -3.320328,1.870994 -3.324219,3.728516 v 0.199218 c 0.0039,-1.85752 1.482868,-3.484315 3.324219,-3.728515 l 19.359374,-1.701172 1.140626,-0.09961 25.15039,-2.1875 c 1.90957,-0.15428 3.450984,1.244467 3.458984,3.148437 v -0.199219 c -0.0079,-1.903969 -1.549409,-3.302721 -3.458984,-3.148437 z m 3.453125,16.099609 -24.580078,2.15625 v 0.199219 l 24.580078,-2.15625 z M 50.173828,53.421875 25.609375,55.574219 v 0.199219 l 24.564453,-2.152344 h 0.002 v -0.199219 z m 27.84961,9.050781 -24.574219,2.152344 -1.638672,0.144531 -1.636719,0.142578 v 0.199219 l 1.636719,-0.142578 1.638672,-0.144531 24.574219,-2.152344 z"
         transform="translate(-268,635.29076)"
         id="path4470"
         inkscape:connector-curvature="0" />
    </g>
  </g>
  <g
     style="display:inline"
     inkscape:label="PLACE YOUR PICTOGRAM HERE"
     id="layer3"
     inkscape:groupmode="layer" />
  <g
     sodipodi:insensitive="true"
     style="display:none"
     inkscape:label="BADGE"
     id="layer2"
     inkscape:groupmode="layer">
    <g
       clip-path="none"
       id="g4394"
       transform="translate(-340.00001,-581)"
       style="display:inline">
      <g
         id="g855">
        <g
           style="opacity:0.6;filter:url(#filter891)"
           clip-path="url(#clipPath873)"
           id="g870"
           inkscape:groupmode="maskhelper">
          <circle
             style="color:#000000;display:inline;overflow:visible;visibility:visible;fill:#000000;fill-opacity:1;fill-rule:nonzero;stroke:none;stroke-width:4;marker:none;enable-background:accumulate"
             id="path844"
             transform="matrix(1.4999992,0,0,1.4999992,-29.999795,-237.54282)"
             cx="252"
             cy="552.36218"
             r="12" />
        </g>
        <g
           id="g862">
          <circle
             transform="matrix(1.4999992,0,0,1.4999992,-29.999795,-238.54282)"
             id="path4398"
             style="color:#000000;display:inline;overflow:visible;visibility:visible;fill:#f5f5f5;fill-opacity:1;fill-rule:nonzero;stroke:none;stroke-width:4;marker:none;enable-background:accumulate"
             cx="252"
             cy="552.36218"
             r="12" />
          <circle
             style="color:#000000;display:inline;overflow:visible;visibility:visible;fill:#dd4814;fill-opacity:1;fill-rule:nonzero;stroke:none;stroke-width:4;marker:none;enable-background:accumulate"
             id="path4400"
             transform="matrix(1.25,0,0,1.25,33,-100.45273)"
             cx="252"
             cy="552.36218"
             r="12" />
          <path
             transform="matrix(1.511423,-0.16366377,0.16366377,1.511423,-755.37346,-191.93651)"
             d="m 669.8173,595.77657 c -0.39132,0.22593 -3.62645,-1.90343 -4.07583,-1.95066 -0.44938,-0.0472 -4.05653,1.36297 -4.39232,1.06062 -0.3358,-0.30235 0.68963,-4.03715 0.59569,-4.47913 -0.0939,-0.44198 -2.5498,-3.43681 -2.36602,-3.8496 0.18379,-0.41279 4.05267,-0.59166 4.44398,-0.81759 0.39132,-0.22593 2.48067,-3.48704 2.93005,-3.4398 0.44938,0.0472 1.81505,3.67147 2.15084,3.97382 0.3358,0.30236 4.08294,1.2817 4.17689,1.72369 0.0939,0.44198 -2.9309,2.86076 -3.11469,3.27355 -0.18379,0.41279 0.0427,4.27917 -0.34859,4.5051 z"
             inkscape:randomized="0"
             inkscape:rounded="0.1"
             inkscape:flatsided="false"
             sodipodi:arg2="1.6755161"
             sodipodi:arg1="1.0471976"
             sodipodi:r2="4.3458705"
             sodipodi:r1="7.2431178"
             sodipodi:cy="589.50385"
             sodipodi:cx="666.19574"
             sodipodi:sides="5"
             id="path4459"
             style="color:#000000;display:inline;overflow:visible;visibility:visible;fill:#f5f5f5;fill-opacity:1;fill-rule:nonzero;stroke:none;stroke-width:3;marker:none;enable-background:accumulate"
             sodipodi:type="star" />
        </g>
      </g>
    </g>
  </g>
</svg>
